<svg width="34" height="26" viewBox="0 0 34 26" fill="none" xmlns="http://www.w3.org/2000/svg">
<g clip-path="url(#clip0_501_3415)">
<path fill-rule="evenodd" clip-rule="evenodd" d="M0 0.724121H47.1724V2.63791H0V0.724121ZM0 4.54653H47.1724V6.46033H0V4.54653ZM0 8.36378H47.1724V10.2776H0V8.36378ZM0 12.181H47.1724V14.0948H0V12.181ZM0 16.0086H47.1724V17.9121H0V16.0086ZM0 19.8207H47.1724V21.7345H0V19.8207ZM0 23.6379H47.1724V25.5517H0V23.6379Z" fill="#BD3D44"/>
<path fill-rule="evenodd" clip-rule="evenodd" d="M0 2.63791H47.1724V4.54653H0V2.63791ZM0 6.45515H47.1724V8.36377H0V6.45515ZM0 10.2724H47.1724V12.1862H0V10.2724ZM0 14.0948H47.1724V16.0086H0V14.0948ZM0 17.912H47.1724V19.8258H0V17.912ZM0 21.7293H47.1724V23.6431H0V21.7293Z" fill="white"/>
<path fill-rule="evenodd" clip-rule="evenodd" d="M0 0.724121H18.869V14.0948H0V0.724121Z" fill="#192F5D"/>
<path fill-rule="evenodd" clip-rule="evenodd" d="M1.57245 1.29309L1.74831 1.82585H2.29659L1.85176 2.15171L2.02245 2.68447L1.57245 2.35344L1.12762 2.6793L1.29314 2.15171L0.84314 1.82585H1.40693L1.57245 1.29309ZM4.71728 1.29309L4.88797 1.82585H5.44659L4.99659 2.15171L5.16211 2.68447L4.71728 2.35344L4.26728 2.6793L4.43797 2.15171L3.99314 1.82585H4.54142L4.71728 1.29309ZM7.8621 1.29309L8.03279 1.82585H8.58624L8.14141 2.15171L8.3121 2.68447L7.8621 2.35344L7.41211 2.6793L7.58279 2.15171L7.13279 1.82585H7.69141L7.8621 1.29309ZM11.0069 1.29309L11.1776 1.82585H11.7362L11.2862 2.15171L11.4569 2.68447L11.0069 2.35344L10.5569 2.6793L10.7328 2.15171L10.2776 1.82585H10.8311L11.0069 1.29309ZM14.1518 1.29309L14.3224 1.82585H14.8759L14.4311 2.15171L14.6018 2.68447L14.1518 2.35344L13.7018 2.6793L13.8724 2.15171L13.4276 1.82585H13.9811L14.1518 1.29309ZM17.2966 1.29309L17.4673 1.82585H18.0259L17.5707 2.15171L17.7466 2.68447L17.2966 2.35344L16.8466 2.6793L17.0224 2.15171L16.5673 1.82585H17.1259L17.2966 1.29309ZM3.14486 2.63792L3.31555 3.1655H3.87935L3.42935 3.48619L3.59486 4.01895L3.15521 3.69309L2.70521 4.01895L2.86555 3.48619L2.43107 3.1655H2.98452L3.14486 2.63792ZM6.28969 2.63792L6.46555 3.1655H7.019L6.56383 3.48619L6.73969 4.01895L6.28969 3.69309L5.83969 4.01895L6.01038 3.48619L5.56038 3.1655H6.119L6.28969 2.63792ZM9.43452 2.63792L9.60521 3.1655H10.1638L9.71383 3.48619L9.88452 4.01895L9.43452 3.69309L8.98452 4.01895L9.15521 3.48619L8.71038 3.1655H9.25866L9.43452 2.63792ZM12.5793 2.63792L12.7552 3.1655H13.3087L12.8535 3.48619L13.0293 4.01895L12.5793 3.69309L12.1345 4.01895L12.3 3.48619L11.85 3.1655H12.4138L12.5793 2.63792ZM15.7242 2.63792L15.8949 3.1655H16.4535L16.0035 3.48619L16.1742 4.01895L15.7242 3.69309L15.2742 4.01895L15.4449 3.48619L15 3.1655H15.5535L15.7242 2.63792ZM1.57245 3.96206L1.74831 4.49999H2.29659L1.85176 4.82585L2.02245 5.35344L1.57245 5.02757L1.12762 5.35344L1.29314 4.82585L0.84314 4.49999H1.40693L1.57245 3.96206ZM4.71728 3.96206L4.88797 4.49999H5.44659L4.99659 4.82585L5.16211 5.35344L4.71728 5.02757L4.26728 5.35344L4.43797 4.82068L3.99314 4.49482H4.54142L4.71728 3.96206ZM7.8621 3.96206L8.03279 4.49482H8.58624L8.14141 4.82068L8.3121 5.34826L7.8621 5.0224L7.41211 5.34826L7.58279 4.8155L7.13279 4.48964H7.69141L7.8621 3.96206ZM11.0069 3.96206L11.1776 4.49482H11.7362L11.2862 4.82068L11.4569 5.34826L11.0069 5.0224L10.5569 5.34826L10.7328 4.8155L10.2776 4.48964H10.8311L11.0069 3.96206ZM14.1518 3.96206L14.3224 4.49482H14.8759L14.4311 4.82068L14.6018 5.34826L14.1518 5.0224L13.7018 5.34826L13.8724 4.8155L13.4276 4.48964H13.9811L14.1518 3.96206ZM17.2966 3.96206L17.4673 4.49482H18.0259L17.5707 4.82068L17.7466 5.34826L17.2966 5.0224L16.8466 5.34826L17.0224 4.8155L16.5673 4.48964H17.1259L17.2966 3.96206ZM3.14486 5.30688L3.31555 5.83447H3.87935L3.42935 6.16033L3.60004 6.69309L3.15004 6.36206L2.70004 6.68792L2.87073 6.16033L2.4259 5.83447H2.97935L3.14486 5.30688ZM6.28969 5.30688L6.46555 5.83447H7.019L6.56383 6.16033L6.73969 6.69309L6.28969 6.36206L5.83969 6.68792L6.01038 6.16033L5.56038 5.83447H6.119L6.28969 5.30688ZM9.43452 5.30688L9.60521 5.83447H10.1638L9.71383 6.16033L9.88452 6.69309L9.43452 6.36206L8.98452 6.68792L9.15521 6.16033L8.71038 5.83447H9.25866L9.43452 5.30688ZM12.5793 5.30688L12.7552 5.83447H13.3087L12.8587 6.16033L13.0293 6.69309L12.5793 6.36206L12.1345 6.68792L12.3 6.16033L11.85 5.83447H12.4138L12.5793 5.30688ZM15.7242 5.30688L15.8949 5.83447H16.4535L16.0035 6.16033L16.1742 6.69309L15.7242 6.36206L15.2742 6.68792L15.4449 6.16033L15 5.83447H15.5535L15.7242 5.30688ZM1.57245 6.64654L1.74831 7.17413H2.29659L1.85176 7.49999L2.02245 8.03275L1.57245 7.70171L1.12762 8.02757L1.29314 7.49999L0.84314 7.17413H1.40693L1.57245 6.64654ZM4.71728 6.64654L4.88797 7.17413H5.44659L4.99659 7.49999L5.16211 8.02757L4.71728 7.70171L4.26728 8.02757L4.43797 7.49999L3.99314 7.17413H4.54142L4.71728 6.64654ZM7.8621 6.64654L8.03279 7.17413H8.58624L8.14141 7.49999L8.3121 8.03275L7.8621 7.70171L7.41211 8.02757L7.58279 7.49999L7.13279 7.17413H7.69141L7.8621 6.64654ZM11.0069 6.64654L11.1776 7.17413H11.7362L11.2862 7.49999L11.4569 8.03275L11.0069 7.70171L10.5569 8.02757L10.7328 7.49999L10.2776 7.17413H10.8311L11.0069 6.64654ZM14.1518 6.64654L14.3224 7.17413H14.8759L14.4311 7.49999L14.6018 8.03275L14.1518 7.70171L13.7018 8.02757L13.8724 7.49999L13.4276 7.17413H13.9811L14.1518 6.64654ZM17.2966 6.64654L17.4673 7.17413H18.0259L17.5707 7.49999L17.7466 8.03275L17.2966 7.70171L16.8466 8.02757L17.0173 7.49999L16.5621 7.17413H17.1207L17.2966 6.64654ZM3.14486 7.98102L3.31555 8.51378H3.87935L3.42935 8.83447L3.60004 9.36723L3.15004 9.03619L2.70004 9.36723L2.87073 8.83447L2.4259 8.50861H2.97935L3.14486 7.98102ZM6.28969 7.98102L6.46555 8.51378H7.019L6.56383 8.83447L6.73969 9.36723L6.28969 9.03619L5.83969 9.36723L6.01038 8.83447L5.56038 8.50861H6.119L6.28969 7.98102ZM9.43452 7.98102L9.60521 8.51378H10.1638L9.71383 8.83447L9.88452 9.36723L9.43452 9.03619L8.98452 9.36723L9.15521 8.83447L8.71038 8.50861H9.25866L9.43452 7.98102ZM12.5793 7.98102L12.7552 8.51378H13.3087L12.8587 8.83447L13.0293 9.36723L12.5793 9.03619L12.1345 9.36723L12.3 8.83447L11.85 8.50861H12.4138L12.5793 7.98102ZM15.7242 7.98102L15.8949 8.51378H16.4535L16.0035 8.83447L16.1742 9.36723L15.7242 9.03619L15.2742 9.36723L15.4449 8.83447L15 8.50861H15.5535L15.7242 7.98102ZM1.57245 9.31551L1.74831 9.84826H2.29659L1.85176 10.1741L2.02245 10.6965L1.57245 10.3758L1.12762 10.6965L1.29314 10.169L0.84314 9.84309H1.40693L1.57245 9.31551ZM4.71728 9.31551L4.88797 9.84826H5.44659L4.99659 10.1741L5.16728 10.6965L4.71728 10.3758L4.26728 10.6965L4.44314 10.169L3.99314 9.84309H4.54142L4.71728 9.31551ZM7.8621 9.31551L8.03279 9.84826H8.58624L8.14141 10.1741L8.3121 10.6965L7.8621 10.3758L7.41211 10.6965L7.58279 10.169L7.13279 9.84309H7.69141L7.8621 9.31551ZM11.0069 9.31551L11.1776 9.84826H11.7362L11.2862 10.1741L11.4569 10.6965L11.0069 10.3758L10.5569 10.6965L10.7328 10.169L10.2776 9.84309H10.8311L11.0069 9.31551ZM14.1518 9.31551L14.3224 9.84826H14.8759L14.4311 10.1741L14.6018 10.6965L14.1518 10.3758L13.7018 10.6965L13.8724 10.169L13.4276 9.84309H13.9811L14.1518 9.31551ZM17.2966 9.31551L17.4673 9.84826H18.0259L17.5707 10.1741L17.7466 10.6965L17.2966 10.3758L16.8466 10.6965L17.0224 10.169L16.5673 9.84309H17.1259L17.2966 9.31551ZM3.14486 10.6552L3.31555 11.1827H3.87935L3.42935 11.5086L3.60004 12.0414L3.15004 11.7103L2.70004 12.0362L2.87073 11.5086L2.4259 11.1827H2.97935L3.14486 10.6552ZM6.28969 10.6552L6.46555 11.1827H7.019L6.56383 11.5086L6.73969 12.0414L6.28969 11.7103L5.83969 12.0362L6.01038 11.5086L5.56038 11.1827H6.119L6.28969 10.6552ZM9.43452 10.6552L9.60521 11.1827H10.1638L9.71383 11.5086L9.88452 12.0414L9.43452 11.7103L8.98452 12.0362L9.15521 11.5086L8.71038 11.1827H9.25866L9.43452 10.6552ZM12.5793 10.6552L12.7552 11.1827H13.3087L12.8587 11.5086L13.0293 12.0414L12.5793 11.7103L12.1345 12.0362L12.3 11.5086L11.85 11.1827H12.4138L12.5793 10.6552ZM15.7242 10.6552L15.8949 11.1827H16.4535L16.0035 11.5086L16.1742 12.0414L15.7242 11.7103L15.2742 12.0362L15.4449 11.5086L15 11.1827H15.5535L15.7242 10.6552ZM1.57245 11.9948L1.74831 12.5224H2.29659L1.85176 12.8483L2.02245 13.3758L1.57245 13.05L1.12762 13.3758L1.29314 12.8431L0.84314 12.5172H1.40693L1.57245 11.9948ZM4.71728 11.9948L4.88797 12.5224H5.44659L4.99659 12.8483L5.16728 13.3758L4.71728 13.05L4.26728 13.3758L4.44314 12.8431L3.99314 12.5172H4.54142L4.71728 11.9948ZM7.8621 11.9948L8.03279 12.5224H8.58624L8.15176 12.8483L8.32245 13.3758L7.87245 13.05L7.42245 13.3758L7.59314 12.8431L7.14314 12.5172H7.70176L7.8621 11.9948ZM11.0069 11.9948L11.1776 12.5224H11.7362L11.2862 12.8483L11.4569 13.3758L11.0069 13.05L10.5569 13.3758L10.7328 12.8431L10.2776 12.5172H10.8311L11.0069 11.9948ZM14.1518 11.9948L14.3224 12.5224H14.8759L14.4311 12.8483L14.6018 13.3758L14.1518 13.05L13.7018 13.3758L13.8724 12.8431L13.4276 12.5172H13.9811L14.1518 11.9948ZM17.2966 11.9948L17.4673 12.5224H18.0259L17.5707 12.8483L17.7466 13.3758L17.2966 13.05L16.8466 13.3758L17.0224 12.8431L16.5673 12.5172H17.1259L17.2966 11.9948Z" fill="white"/>
</g>
<defs>
<clipPath id="clip0_501_3415">
<rect width="33.1034" height="24.8276" fill="white" transform="translate(0 0.724121)"/>
</clipPath>
</defs>
</svg>
